<?xml version="1.0" encoding="UTF-8"?>
<svg width="162px" height="48px" viewBox="0 0 162 48" version="1.1" xmlns="http://www.w3.org/2000/svg" xmlns:xlink="http://www.w3.org/1999/xlink">
    <!-- Generator: Sketch 55.2 (78181) - https://sketchapp.com -->
    <title>#LogoMboy</title>
    <desc>Created with Sketch.</desc>
    <g id="Symbols" stroke="none" stroke-width="1" fill="none" fill-rule="evenodd">
        <g id="menu-topo" transform="translate(-12.000000, -24.000000)">
            <g id="#LogoMboy" transform="translate(12.000000, 24.000000)">
                <path d="M51.5512987,16.7716783 L49,10 L57.9376127,10.0658 L63.2838033,10.0658 C65.9817674,10.0658 67.7935522,10.8886348 68.7440266,12.5342435 C69.6866156,10.8886348 71.5038595,10.0658 74.1963646,10.0658 L79.5425552,10.0658 C81.766192,9.96384348 83.8715502,11.0833565 85.051303,12.9950261 C85.7221546,14.1339565 86.0496953,15.4466696 85.993892,16.7716783 L85.993892,37.9917826 L79.0142443,37.9917826 L79.0142443,19.3141391 C79.0142443,17.9071391 78.3725073,17.191313 77.0884268,17.191313 L74.0010533,17.191313 C73.7687421,17.2084174 73.5412834,17.2640522 73.3265623,17.3558435 C72.6417598,17.5970087 72.1977603,18.2684 72.237793,19.0014522 L72.237793,38 L65.2502601,38 L65.2502601,18.9932348 C65.2939321,18.1064261 64.6703919,17.3290609 63.8042289,17.191313 L60.4972819,17.191313 C59.5249715,17.1287391 58.6782184,17.8555826 58.5793497,18.8369217 C58.566612,18.9070435 58.5478087,18.975887 58.5229399,19.0426 L58.5229399,37.9670696 L51.535043,37.9670696 L51.5512987,16.7716783 Z" id="Path" fill="#FFFFFF" fill-rule="nonzero"></path>
                <path d="M88.0701875,0 L88.0701875,30.5414576 C87.7800312,32.500087 88.3992672,34.4848339 89.7468427,35.916771 C91.1221364,37.3242796 93.0181781,38.0782482 94.9690665,37.9935624 L104.732354,37.9935624 C106.999348,38.0678736 109.101212,36.7956571 110.11499,34.735815 C110.721841,33.6084812 111.026151,32.338979 110.997254,31.0545785 L110.997254,17.2091217 C111.046792,15.41534 110.424608,13.6691488 109.256905,12.3224402 C108.135793,11.0026936 106.488036,10.2666393 104.772457,10.3189346 L94.9690665,10.3189346 L94.9690665,0 L88.0701875,0 Z M96.2606159,30.8590895 C95.68797,30.7587212 95.2244276,30.3296226 95.073452,29.7596224 L95.073452,29.7270509 C94.9926564,29.5839175 94.956092,29.4191905 94.9690665,29.2546444 L94.9690665,19.2777702 C94.9625792,19.1722749 94.9790922,19.0665987 95.0174259,18.9682812 C95.1306576,17.9953601 95.9716391,17.2808995 96.9346985,17.3394075 L102.277231,17.3394075 C102.730158,17.2932043 103.180726,17.4442393 103.516882,17.7548743 C103.853629,18.0654491 104.044707,18.5064905 104.042348,18.9682812 C104.090118,19.0810749 104.10958,19.2043035 104.098375,19.3266274 L104.098375,29.7596224 C104.098375,30.346029 103.648986,30.712518 102.750799,30.8590895 C102.614567,30.89528 102.474207,30.9117467 102.333847,30.9079467 L96.6781579,30.9079467 C96.537208,30.9171149 96.3956683,30.9005879 96.2606159,30.8590895 Z" id="Shape" fill="#FFFFFF"></path>
                <path d="M114,16.29904 L114,31.700297 L114.152744,32.9864691 C114.569693,36.322908 116.801286,37.991097 120.846343,37.991097 L130.133049,37.991097 C131.918795,38.0791143 133.676823,37.5122368 135.093389,36.3915688 C136.402622,35.2170921 137.103238,33.4820076 136.987648,31.700297 L136.987648,16.29904 C137.103238,14.5173294 136.402622,12.7822448 135.093389,11.6077682 C133.675643,10.4903262 131.918205,9.92381398 130.133049,10.0082399 L120.846343,10.0082399 C117.041902,10.0137791 114.810899,11.6847072 114.152744,15.0210852 C114.062513,15.4411455 114.011205,15.8690579 114,16.29904 Z M128.536021,30.8758199 L122.443961,30.8758199 L122.443961,30.8511068 C122.005191,30.834246 121.602985,30.596855 121.368267,30.2162382 C121.078113,29.8585691 120.911215,29.4119697 120.894702,28.9465616 L120.894702,19.0527753 C120.912394,18.5876107 121.078702,18.1413766 121.368267,17.7830988 C121.602985,17.4024819 122.005191,17.1650909 122.443961,17.1482301 L128.536021,17.1482301 C128.969483,17.1798214 129.361663,17.4257341 129.587535,17.8078118 C129.880048,18.1565939 130.054613,18.5934542 130.08469,19.0527753 L130.08469,28.9217878 C130.062869,29.397848 129.887715,29.8529691 129.587535,30.2162382 C129.361663,30.5983159 128.969483,30.8442286 128.536021,30.8758199 Z" id="Shape" fill="#FFFFFF"></path>
                <path d="M139.022426,48 L139.022426,40.9828476 L153.021519,40.9828476 C153.165571,40.9905079 153.309623,40.9712063 153.446412,40.9259079 C154.276831,40.7941746 154.920224,40.1300794 155.022513,39.2977587 L155.022513,37.6696698 L146.038012,37.6696698 C144.831121,37.721181 143.629071,37.4926984 142.526285,37.0021365 C141.478577,36.4193492 140.598527,35.5785238 139.969661,34.5600032 C139.258478,33.3791079 138.925585,32.0105048 139.013953,30.6362317 L139.013953,10 L146.038012,10 L146.038012,28.4220381 C146.038012,29.895473 146.666879,30.6280889 147.924612,30.6280889 L152.825414,30.6280889 C152.965835,30.6320095 153.106255,30.6155429 153.241834,30.5792921 C154.141252,30.4827841 154.859093,29.7876254 154.981355,28.8942032 L154.981355,10 L161.997546,10 L161.997546,40.4618857 C162.009651,40.9387556 161.976967,41.4156857 161.899494,41.8864635 C161.354759,45.9621746 159.177028,48 155.365696,48 L139.022426,48 Z" id="Path" fill="#FFFFFF" fill-rule="nonzero"></path>
                <path d="M0,22.1764767 C0,26.135874 0.462216986,29.121726 2.06781918,32.3346904 C2.61865699,33.5067178 3.26696384,34.6303452 4.00586849,35.6936986 C5.83367671,38.2569699 8.17917808,40.4075452 10.8905425,42.0060712 C14.9045479,44.2454301 17.7427288,45 22.810926,45 C30.0036603,45 37.5532767,40.3103233 41.0077589,34.1034301 C43.2458521,30.0871945 44,27.2474466 44,22.1764767 C43.8907233,18.5658849 42.8726959,15.0413041 41.0401863,11.9289973 C40.6995781,11.3366849 40.3914575,10.857989 39.9941315,10.3063014 C39.2762082,9.27875068 38.4615452,8.32238356 37.5613534,7.45027945 C33.8068274,3.6856274 28.2683123,1 22.8190027,1 C18.8617753,1 15.877611,1.45434521 12.6663945,3.06896438 C7.99124384,5.23159452 4.23738082,8.98756712 2.07593205,13.6653096 C0.798081644,16.334663 0.093659726,19.2423397 0.00810684932,22.2008274" id="Path" fill="#FFFFFF"></path>
                <path d="M9.86684186,17.8309412 L8,13 L14.5338265,13.0482941 L18.4298104,13.0482941 C20.4021324,13.0482941 21.7251337,13.6441176 22.4150144,14.8357647 C23.1022551,13.6441176 24.4279564,13.0482941 26.3921783,13.0482941 L30.2881022,13.0482941 C31.9085239,12.9736471 33.4438054,13.7705294 34.3058262,15.1336471 C34.7959667,15.9497647 35.035667,16.8898235 34.9957069,17.8389412 L34.9957069,33 L29.8660618,33 L29.8660618,19.6425294 C29.8660618,18.6360588 29.4034014,18.1288235 28.4618804,18.1288235 L26.2136182,18.1288235 C26.046218,18.1401765 25.8817578,18.1782353 25.7265977,18.2415294 C25.2165972,18.4028235 24.8822168,18.8871176 24.9149169,19.4170588 L24.9149169,32.9919412 L19.8258318,32.9919412 L19.8258318,19.4170588 C19.8584718,18.783 19.4030114,18.2269412 18.7706707,18.1288235 L16.3357483,18.1288235 C15.6251676,18.0865294 15.008247,18.6095882 14.9396669,19.3124118 C14.9349269,19.3627059 14.9211869,19.4117647 14.8991069,19.4573529 L14.8991069,32.9919412 L9.81002181,32.9919412 L9.86684186,17.8309412 Z" id="Path" fill="#D5652B" fill-rule="nonzero"></path>
            </g>
        </g>
    </g>
</svg>