<?xml version="1.0" encoding="UTF-8"?>
<!DOCTYPE svg PUBLIC "-//W3C//DTD SVG 1.1//EN" "http://www.w3.org/Graphics/SVG/1.1/DTD/svg11.dtd">
<!-- Creator: CorelDRAW X8 -->
<svg xmlns="http://www.w3.org/2000/svg" xml:space="preserve" width="31.75mm" height="30.48mm" version="1.1"
     style="shape-rendering:geometricPrecision; text-rendering:geometricPrecision; image-rendering:optimizeQuality; fill-rule:evenodd; clip-rule:evenodd"
     viewBox="0 0 3175 3048"
     xmlns:xlink="http://www.w3.org/1999/xlink">
 <defs>
  <style type="text/css">
   <![CDATA[
    .str1 {stroke:#D80027;stroke-width:50}
    .str0 {stroke:#D80027;stroke-width:7.62}
    .fil2 {fill:none}
    .fil1 {fill:#D80027}
    .fil0 {fill:#FCD1D9}
   ]]>
  </style>
 </defs>
    <g id="Camada_x0020_1">
  <metadata id="CorelCorpID_0Corel-Layer"/>
        <g id="_1662126360128">
   <circle id="Oval" class="fil0" cx="1588" cy="1524" r="1508"/>
            <path id="Combined-Shape" class="fil1 str0"
                  d="M1898 1441c-7,34 -19,68 -37,98l-246 421c-5,8 -13,13 -22,13 0,0 -1,0 -1,0 -9,0 -17,-5 -22,-13l-252 -416c-31,-52 -48,-111 -48,-172 0,-179 143,-325 318,-325 75,0 144,27 199,72 -17,9 -32,20 -45,33 -43,-32 -96,-51 -154,-51 -146,0 -265,122 -265,271 0,51 14,100 40,143l229 379 223 -383c13,-21 22,-44 29,-69 7,1 14,2 22,2 11,0 22,-1 32,-3z"/>
            <g>
    <path class="fil2 str1" d="M1694 1463c289,-276 289,-276 289,-276"/>
                <path class="fil2 str1" d="M1693 1185c294,280 294,280 294,280"/>
   </g>
  </g>
 </g>
</svg>
