<?xml version="1.0" encoding="UTF-8"?>
<svg width="114px" height="114px" viewBox="0 0 114 114" version="1.1" xmlns="http://www.w3.org/2000/svg" xmlns:xlink="http://www.w3.org/1999/xlink">
    <!-- Generator: sketchtool 55.2 (78181) - https://sketchapp.com -->
    <title>A8372E50-B324-4452-A0DA-821B1A38DED3</title>
    <desc>Created with sketchtool.</desc>
    <g id="desktop" stroke="none" stroke-width="1" fill="none" fill-rule="evenodd">
        <g id="mboy-desk-0.6.2-cidades-sucesso" transform="translate(-580.000000, -134.000000)">
            <g id="Group-2" transform="translate(580.000000, 134.000000)">
                <circle id="Oval" fill="#E1EFD6" cx="57" cy="57" r="57"></circle>
                <g id="Group-5" transform="translate(45.000000, 39.000000)" fill="#6DA544" fill-rule="nonzero">
                    <path d="M23.7346171,14.882898 C23.4616476,16.1931618 22.9811631,17.4528186 22.3074,18.6087891 L13.0245333,34.5015234 C12.8454,34.8083203 12.5232667,34.9971973 12.1745333,35 C12.1718667,35 12.1692667,35 12.1666,35 C11.8208667,35 11.4994,34.8167969 11.3169333,34.5152637 L1.79126667,18.7750391 C0.619266667,16.8341797 0,14.5970508 0,12.3046875 C0,5.51988281 5.3832,0 12,0 C14.8443638,0 17.4607729,1.02000932 19.5196042,2.72203551 C18.8919994,3.04642353 18.3240147,3.47006449 17.836416,3.97219239 C16.1920653,2.75528836 14.1755264,2.03710938 12,2.03710938 C6.486,2.03710938 1.98666667,6.65068359 1.98666667,12.3046875 C1.98666667,14.215332 2.5156,16.079082 3.49113333,17.6945508 L12.1514667,32.0049023 L20.5910667,17.555918 C21.0666747,16.7398773 21.4284207,15.861254 21.6671493,14.947141 C21.9398444,14.9820193 22.2178224,15 22.5,15 C22.9221473,15 23.3348954,14.959757 23.7346171,14.882898 Z" id="Combined-Shape"></path>
                </g>
                <path d="M70.9049807,42.3529463 L59.9588438,52.996461 L54.1027841,47.0402869 C53.6217285,46.550975 52.8418473,46.550975 52.3607917,47.0402869 C51.8797361,47.5292061 51.8797361,48.3224725 52.3607917,48.8117843 L59.0693158,55.6354463 C59.3009637,55.8730335 59.6175492,56.0045901 59.9464893,56 C60.2653912,56.003412 60.5723247,55.8765679 60.7989537,55.6484057 L72.6222641,44.1621435 C73.1133577,43.680293 73.1276426,42.8838851 72.6531504,42.3843628 C72.1786583,41.8844478 71.3964604,41.8703104 70.9049807,42.3529463 L70.9049807,42.3529463 Z" id="Path" fill="#6DA544" fill-rule="nonzero"></path>
            </g>
        </g>
    </g>
</svg>