<?xml version="1.0" encoding="UTF-8"?>
<svg width="24px" height="21px" viewBox="0 0 24 21" version="1.1" xmlns="http://www.w3.org/2000/svg" xmlns:xlink="http://www.w3.org/1999/xlink">
    <!-- Generator: sketchtool 55.2 (78181) - https://sketchapp.com -->
    <title>BAE4A5F8-DD02-42C8-887E-B9A0AB2AD3D6</title>
    <desc>Created with sketchtool.</desc>
    <g id="desktop" stroke="none" stroke-width="1" fill="none" fill-rule="evenodd">
        <g id="mboy-desk-0.0-inicio" transform="translate(-22.000000, -128.000000)" fill="#D5652B" fill-rule="nonzero">
            <g id="ic/pessoas" transform="translate(22.000000, 128.000000)">
                <g id="conversation">
                    <path d="M11.7792505,12.0021479 C12.2165998,12.6090026 12.474576,13.3539106 12.474576,14.1580778 L12.474576,17.3927575 L11.5254233,17.3927575 L11.5254233,11.9100584 C11.5254233,11.8376989 11.527512,11.7658191 11.5316322,11.6944766 C11.6194601,11.7924546 11.7021431,11.8951556 11.7792505,12.0021479 L11.7627122,11.8932036 C11.4689269,11.5080903 11.1525427,11.2249188 10.8135596,11.043689 C10.6482278,10.955298 10.4748323,10.8722959 10.2933731,10.7946826 C10.2937887,10.7928427 10.2942053,10.7910032 10.2946229,10.789164 C10.1611948,10.7292001 10.0235822,10.676975 9.88235693,10.6330616 Z M9.6934898,10.5798712 C9.40547566,10.507075 9.10407371,10.4683982 8.79383035,10.4683982 L7.5932202,10.4683982 L7.5932202,12.1832623 C7.5932202,12.5586118 7.28969479,12.862874 6.91525412,12.862874 C6.54081345,12.862874 6.23728803,12.5586118 6.23728803,12.1832623 L6.23728803,10.4683982 L5.03667788,10.4683982 C3.00711861,10.4683982 1.3559322,12.1235924 1.3559322,14.1580778 L1.3559322,19.6407769 L12.474576,19.6407769 L12.474576,18.7519808 L10.8474572,18.7519808 C10.4730165,18.7519808 10.1694911,18.4477187 10.1694911,18.0723692 L10.1694911,11.9100584 C10.1694911,11.5268921 10.2122996,11.1535858 10.2933731,10.7946826 Z M13.8305089,18.7519808 L13.8305089,20.3203886 C13.8305089,20.6957381 13.5269835,21.0000002 13.1525428,21.0000002 L0.677966122,21.0000002 C0.303525433,21.0000002 0,20.6957381 0,20.3203886 L0,14.1580778 C0,11.6575147 1.8231865,9.57688357 4.20671199,9.17890298 C3.71267808,8.57391268 3.41566112,7.80126218 3.41566112,6.96024276 L3.41566112,5.75610682 C3.41566112,3.82172815 4.98555947,2.24801939 6.91525445,2.24801939 C8.84494942,2.24801939 10.4148478,3.82172815 10.4148478,5.75610682 L10.4148478,6.96024276 C10.4148478,7.80126218 10.1178308,8.57391268 9.6237969,9.17890298 C10.024585,9.24582312 10.4095299,9.36031882 10.7726278,9.51638676 C11.4990074,8.1705522 12.817844,7.19108499 14.3762031,6.93088358 C13.8821692,6.32589329 13.5851522,5.55324279 13.5851522,4.71222336 L13.5851522,3.50808742 C13.5851522,1.57370876 15.1550506,0 17.0847456,0 C19.0144405,0 20.5843389,1.57370876 20.5843389,3.50808742 L20.5843389,4.71222336 C20.5843389,5.55324279 20.2873219,6.32589329 19.793288,6.93088358 C22.1768135,7.32886417 24,9.40949527 24,11.9100584 L24,18.0723692 C24,18.4477187 23.6964746,18.7519808 23.3220339,18.7519808 L13.8305089,18.7519808 Z M13.8305089,17.3927575 L22.6440671,17.3927575 L22.6440671,11.9100584 C22.6440671,9.87557301 20.9928807,8.22037883 18.9633215,8.22037883 L17.7627113,8.22037883 L17.7627113,9.93524291 C17.7627113,10.3105924 17.4591859,10.6148546 17.0847452,10.6148546 C16.7103046,10.6148546 16.4067791,10.3105924 16.4067791,9.93524291 L16.4067791,8.22037883 L15.206169,8.22037883 C13.785293,8.22037883 12.5498678,9.03163466 11.9366387,10.2163411 C13.0903285,11.1420101 13.8305089,12.5648016 13.8305089,14.1580778 L13.8305089,17.3927575 Z M4.77159339,5.75610677 L4.77159339,6.96024272 C4.77159339,8.14514565 5.73322052,9.10910684 6.91525445,9.10910684 C8.09728837,9.10910684 9.05891551,8.14514565 9.05891551,6.96024272 L9.05891551,5.75610677 C9.05891551,4.57120384 8.09728837,3.60724265 6.91525445,3.60724265 C5.73322052,3.60724265 4.77159339,4.57120384 4.77159339,5.75610677 Z M14.9410845,3.50808738 L14.9410845,4.71222332 C14.9410845,5.89712626 15.9027116,6.86108744 17.0847456,6.86108744 C18.2667795,6.86108744 19.2284066,5.89712626 19.2284066,4.71222332 L19.2284066,3.50808738 C19.2284066,2.32318444 18.2667795,1.35922326 17.0847456,1.35922326 C15.9027116,1.35922326 14.9410845,2.32318444 14.9410845,3.50808738 Z M17.5640681,11.9178055 C17.6901698,12.0448929 17.7627121,12.2195531 17.7627121,12.3982909 C17.7627121,12.5777084 17.6901698,12.7523686 17.5640681,12.8794559 C17.4379664,13.0058637 17.2630511,13.0779025 17.084746,13.0779025 C16.906441,13.0779025 16.7315257,13.0058637 16.605424,12.8794559 C16.4793223,12.7523686 16.4067799,12.5777084 16.4067799,12.3982909 C16.4067799,12.2195531 16.4793223,12.0442133 16.605424,11.9178055 C16.7315257,11.7913977 16.906441,11.7193589 17.084746,11.7193589 C17.2630511,11.7193589 17.4379664,11.7913977 17.5640681,11.9178055 Z" id="Combined-Shape"></path>
                    <path d="M7.39457609,13.926602 C7.2684744,13.8001942 7.09355915,13.7281554 6.91525406,13.7281554 C6.73694898,13.7281554 6.56203372,13.8001942 6.43593203,13.926602 C6.30983033,14.0530097 6.23728796,14.2283495 6.23728796,14.4070874 C6.23728796,14.5865049 6.30983033,14.7611651 6.43593203,14.8882524 C6.56203372,15.0146602 6.73694898,15.086699 6.91525406,15.086699 C7.09355915,15.086699 7.2684744,15.0146602 7.39457609,14.8882524 C7.52067779,14.7611651 7.59322016,14.5865049 7.59322016,14.4070874 C7.59322016,14.2283495 7.52067779,14.0536894 7.39457609,13.926602 Z" id="Path"></path>
                </g>
            </g>
        </g>
    </g>
</svg>