<?xml version="1.0" encoding="UTF-8"?>
<svg width="19px" height="28px" viewBox="0 0 19 28" version="1.1" xmlns="http://www.w3.org/2000/svg"
     xmlns:xlink="http://www.w3.org/1999/xlink">
    <!-- Generator: sketchtool 55.2 (78181) - https://sketchapp.com -->
    <title>92876648-143B-43EF-A1F1-1108F3427FD5</title>
    <desc>Created with sketchtool.</desc>
    <g id="desktop" stroke="none" stroke-width="1" fill="none" fill-rule="evenodd">
        <g id="mboy-desk-0.0-inicio" transform="translate(-23.000000, -176.000000)" fill="#D5652B" fill-rule="nonzero">
            <g id="ic/pin" transform="translate(23.000000, 176.000000)">
                <g id="Group-5">
                    <path d="M9.5,0 C4.2617,0 0,4.41590625 0,9.84375 C0,11.6776406 0.490252778,13.4673437 1.41808611,15.0200312 L8.95923889,27.6122109 C9.10369167,27.8534375 9.35818611,28 9.63189167,28 C9.63400278,28 9.63606111,28 9.63817222,28 C9.91425278,27.9977578 10.169275,27.8466563 10.3110889,27.6012188 L17.660025,14.8870313 C18.5366639,13.3671563 19,11.6232266 19,9.84375 C19,4.41590625 14.7383,0 9.5,0 Z M16.3012607,14.0447343 L9.61991087,25.6039218 L2.76381382,14.1556406 C1.99151662,12.8632656 1.57277774,11.3722656 1.57277774,9.84375 C1.57277774,5.32054691 5.13474987,1.62968756 9.49999977,1.62968756 C13.8652497,1.62968756 17.421944,5.32054691 17.421944,9.84375 C17.421944,11.3269297 17.0308079,12.7798125 16.3012607,14.0447343 Z"
                          id="Shape"></path>
                    <path d="M9.5,4.921875 C6.88085,4.921875 4.75,7.12982812 4.75,9.84375 C4.75,12.5403359 6.846175,14.765625 9.5,14.765625 C12.1865472,14.765625 14.25,12.5106953 14.25,9.84375 C14.25,7.12982812 12.11915,4.921875 9.5,4.921875 Z M9.50000005,13.1359374 C7.74476945,13.1359374 6.32277774,11.6575703 6.32277774,9.84375 C6.32277774,8.03446878 7.7539,6.55156256 9.50000005,6.55156256 C11.2461001,6.55156256 12.6719446,8.03446878 12.6719446,9.84375 C12.6719446,11.6311015 11.2830445,13.1359374 9.50000005,13.1359374 Z"
                          id="Shape"></path>
                </g>
            </g>
        </g>
    </g>
</svg>
