<?xml version="1.0" encoding="UTF-8"?>
<svg width="25px" height="25px" viewBox="0 0 25 25" version="1.1" xmlns="http://www.w3.org/2000/svg" xmlns:xlink="http://www.w3.org/1999/xlink">
    <!-- Generator: sketchtool 55.2 (78181) - https://sketchapp.com -->
    <title>2A923BAE-C388-4D0C-8E93-1D9C9F695690</title>
    <desc>Created with sketchtool.</desc>
    <g id="desktop" stroke="none" stroke-width="1" fill="none" fill-rule="evenodd">
        <g id="mboy-desk-0.0-inicio" transform="translate(-25.000000, -371.000000)">
            <rect fill="#FFFFFF" x="0" y="0" width="1280" height="943"></rect>
            <g id="ic/push" transform="translate(25.000000, 373.000000)" fill="#D5652B" fill-rule="nonzero">
                <g id="smartphone">
                    <path d="M17.0628008,17.1892022 C16.7069589,17.1892022 16.4184709,17.4681059 16.4184709,17.8121258 L16.4184709,21.3328898 C16.4184709,22.6472586 15.3123712,23.7165276 13.9529211,23.7165276 L3.76417528,23.7165276 C2.40463919,23.7165276 1.29862544,22.6471755 1.29862544,21.3328898 L1.29862544,3.62948496 C1.29862544,2.31519928 2.4047251,1.24584714 3.76417528,1.24584714 L13.9528351,1.24584714 C15.3123712,1.24584714 16.418385,2.31519928 16.418385,3.62948496 C16.418385,3.97350488 16.706873,4.25240853 17.0627149,4.25240853 C17.4185568,4.25240853 17.7070448,3.97350488 17.7070448,3.62948496 C17.7070448,1.62823916 16.0229383,0 13.9529211,0 L3.76417528,0 C1.69415809,0 0.00996563584,1.62823916 0.00996563584,3.62948496 L0.00996563584,21.3328068 C0.00996563584,23.3341356 1.69415809,24.9622917 3.76417528,24.9622917 L13.9528351,24.9622917 C16.0229383,24.9622917 17.7070448,23.3340526 17.7070448,21.3328068 L17.7070448,17.8120427 C17.7070448,17.4680228 17.4186427,17.1892022 17.0628008,17.1892022 Z" id="Path"></path>
                    <path d="M14.9095356,4.0511627 C15.2653775,4.0511627 15.5538654,3.77225905 15.5538654,3.42823913 C15.5538654,3.0842192 15.2653775,2.80531555 14.9095356,2.80531555 L2.80756005,2.80531555 C2.45171814,2.80531555 2.16323018,3.0842192 2.16323018,3.42823913 L2.16323018,19.6287371 C2.16323018,19.972757 2.45171814,20.2516606 2.80756005,20.2516606 L14.9095356,20.2516606 C15.2653775,20.2516606 15.5538654,19.972757 15.5538654,19.6287371 L15.5538654,17.9676075 C15.5538654,17.6235876 15.2653775,17.344684 14.9095356,17.344684 C14.5536936,17.344684 14.2652057,17.6235876 14.2652057,17.9676075 L14.2652057,19.0058135 L3.45188993,19.0058135 L3.45188993,4.0511627 L14.9095356,4.0511627 Z" id="Path"></path>
                    <path d="M8.40317853,21.3092202 C8.28290362,21.4254993 8.21417511,21.5857983 8.21417511,21.7502501 C8.21417511,21.9138714 8.28290362,22.0741704 8.40317853,22.1904494 C8.52259433,22.3058979 8.68926099,22.3731737 8.85850497,22.3731737 C9.02774894,22.3731737 9.1944156,22.3058979 9.3138314,22.1904494 C9.43410631,22.0741704 9.50283483,21.9138714 9.50283483,21.7502501 C9.50283483,21.5857983 9.43410631,21.4254993 9.3138314,21.3092202 C9.1944156,21.1937717 9.02774894,21.1273265 8.85850497,21.1273265 C8.6893469,21.1273265 8.52259433,21.1937717 8.40317853,21.3092202 Z" id="Path"></path>
                    <path d="M19.7430409,11.3847175 C20.0988828,11.3847175 20.3873707,11.1058139 20.3873707,10.7617939 L20.3873707,8.66719266 C20.3873707,8.32317273 20.0988828,8.04426908 19.7430409,8.04426908 C19.387199,8.04426908 19.098711,8.32317273 19.098711,8.66719266 L19.098711,10.7617939 C19.098711,11.1058139 19.387199,11.3847175 19.7430409,11.3847175 Z" id="Path"></path>
                    <path d="M19.7433854,12.3698509 C19.5732823,12.3698509 19.4074748,12.4362961 19.2871998,12.5525751 C19.167784,12.6688542 19.0990555,12.8291532 19.0990555,12.9927745 C19.0990555,13.1572263 19.167784,13.3175253 19.2871998,13.4338044 C19.4074748,13.5492529 19.5732823,13.6156981 19.7433854,13.6156981 C19.9126294,13.6156981 20.0784369,13.5492529 20.1987118,13.4338044 C20.3181276,13.3175253 20.3877153,13.1572263 20.3877153,12.9927745 C20.3877153,12.8291532 20.3181276,12.6688542 20.1987118,12.5525751 C20.0784369,12.4362961 19.9126294,12.3698509 19.7433854,12.3698509 Z" id="Path"></path>
                    <path d="M24.306786,5.66511631 L14.9103087,5.66511631 C14.5544668,5.66511631 14.2659788,5.94401995 14.2659788,6.28803986 L14.2659788,12.1632887 L10.6989686,14.8832221 C10.4835047,15.0475909 10.3993123,15.3258301 10.4892607,15.5764945 C10.5792092,15.8271589 10.8235391,15.9952652 11.0980236,15.9952652 L24.306786,15.9952652 C24.6626279,15.9952652 24.9511158,15.7163616 24.9511158,15.3723417 L24.9511158,6.28803986 C24.9511158,5.94393689 24.6626279,5.66511631 24.306786,5.66511631 Z M23.6624566,14.7494189 L12.9553261,14.7494189 L15.309278,12.9544853 C15.4641749,12.836379 15.5545529,12.6561464 15.5545529,12.4653657 L15.5545529,6.91096351 L23.6624566,6.91096351 L23.6624566,14.7494189 L23.6624566,14.7494189 Z" id="Shape"></path>
                </g>
            </g>
        </g>
    </g>
</svg>