<?xml version="1.0" encoding="UTF-8"?>
<svg width="22px" height="27px" viewBox="0 0 24 27" version="1.1" xmlns="http://www.w3.org/2000/svg"
     xmlns:xlink="http://www.w3.org/1999/xlink">
    <!-- Generator: sketchtool 55.2 (78181) - https://sketchapp.com -->
    <title>C53B7FB9-02FB-4D04-A873-F5E673E295DC</title>
    <desc>Created with sketchtool.</desc>
    <g id="desktop" stroke="none" stroke-width="1" fill="none" fill-rule="evenodd">
        <g id="mboy-desk-0.0-inicio" transform="translate(-22.000000, -324.000000)" fill="#D5652B" fill-rule="nonzero">
            <g id="ic/sorteios" transform="translate(22.000000, 324.000000)">
                <g id="Group-5">
                    <path d="M8.4,8.39990848 C8.4,9.06276038 7.86276038,9.6 7.19990843,9.6 C6.53723966,9.6 6,9.06276038 6,8.39990848 C6,7.73723966 6.53723966,7.2 7.19990843,7.2 C7.86276038,7.2 8.4,7.73723966 8.4,8.39990848 Z"
                          id="Path"></path>
                    <path d="M18,8.39990848 C18,9.06276038 17.4627603,9.6 16.8000916,9.6 C16.1372396,9.6 15.6,9.06276038 15.6,8.39990848 C15.6,7.73723966 16.1372396,7.2 16.8000916,7.2 C17.4627603,7.2 18,7.73723966 18,8.39990848 L18,8.39990848 Z"
                          id="Path"></path>
                    <path d="M15.9988714,15.5999502 C15.7456215,15.5999502 15.4962254,15.4926391 15.3404217,15.2918634 C14.4404669,14.1325407 12.9672132,13.4403757 11.4,13.4403757 C9.83278684,13.4403757 8.35953306,14.1325407 7.45957833,15.2918634 C7.20669548,15.6174233 6.7071692,15.6983599 6.34307659,15.4703856 C5.98008503,15.2429058 5.89089705,14.7938805 6.14414695,14.4674964 C7.34414777,12.9224471 9.3090367,12 11.4,12 C13.4909633,12 15.4558522,12.9224471 16.655853,14.4676613 C16.909103,14.7938805 16.819915,15.2429058 16.4569234,15.4705505 C16.3170854,15.5580807 16.1570608,15.5999502 15.9988714,15.5999502 L15.9988714,15.5999502 Z"
                          id="Path"></path>
                    <path d="M24,12 C24,5.38311769 18.6168823,0 12,0 C5.38311769,0 0,5.38311769 0,12 C0,18.6168823 5.38311769,24 12,24 L19.2000732,24 C19.6417237,24 20.000061,23.6418457 20.000061,23.2000122 C20.000061,22.7581787 19.6417237,22.4000244 19.2000732,22.4000244 L17.9609985,22.4000244 C21.5634155,20.3269043 24,16.4463501 24,12 Z M12,22.4000244 C6.26513673,22.4000244 1.59997559,17.7348633 1.59997559,12 C1.59997559,6.26513673 6.26513673,1.59997559 12,1.59997559 C17.7348633,1.59997559 22.4000244,6.26513673 22.4000244,12 C22.4000244,17.7348633 17.7348633,22.4000244 12,22.4000244 Z"
                          id="Shape"></path>
                </g>
            </g>
        </g>
    </g>
</svg>
