<?xml version="1.0" encoding="UTF-8"?>
<svg width="22px" height="20px" viewBox="0 0 22 20" version="1.1" xmlns="http://www.w3.org/2000/svg" xmlns:xlink="http://www.w3.org/1999/xlink">
    <!-- Generator: sketchtool 55.2 (78181) - https://sketchapp.com -->
    <title>3C4282B2-F865-467D-AB33-6D84896BCA8D</title>
    <desc>Created with sketchtool.</desc>
    <g id="desktop" stroke="none" stroke-width="1" fill="none" fill-rule="evenodd">
        <g id="mboy-desk-0.0-inicio" transform="translate(-22.000000, -420.000000)" fill="#D5652B" fill-rule="nonzero">
            <g id="ic/sair-copy" transform="translate(22.000000, 420.000000)">
                <g id="Group-5">
                    <path d="M19.5773201,0 L11.6299534,0 C10.3236664,0 9.25574478,1.07408089 9.25574478,2.37040442 L9.25574478,4.46525736 C9.25574478,4.78988974 9.52096569,5.05294118 9.84804675,5.05294118 C10.1751278,5.05294118 10.4401635,4.78988974 10.4401635,4.46525736 L10.4401635,2.37040442 C10.4418304,1.71672795 10.9713462,1.18492649 11.6299534,1.17555148 L19.5773201,1.17555148 C20.2305562,1.17555148 20.7445143,1.72224268 20.7445143,2.37040442 L20.7445143,17.5694853 C20.7522931,18.2137868 20.2324083,18.7422794 19.5832468,18.7498162 L11.6301386,18.7498162 C10.9741243,18.7474265 10.4429417,18.2204044 10.4401635,17.5694853 L10.4401635,15.5183824 C10.4401635,15.1935662 10.1751278,14.9305147 9.84804675,14.9305147 C9.52096569,14.9305147 9.25574478,15.1935662 9.25574478,15.5183824 L9.25574478,17.5694853 C9.25926374,18.8694853 10.3201474,19.9222427 11.6299534,19.9253677 L19.5773201,19.9253677 C20.8810142,19.9205882 21.934119,18.8672794 21.9289521,17.5731618 L21.9289521,2.37040442 C21.9289521,1.07408089 20.8836071,0 19.5773201,0 L19.5773201,0 Z" id="Path"></path>
                    <path d="M2.03273494,10.5799632 L16.0483262,10.5799632 C16.3754074,10.5799632 16.6406283,10.316728 16.6406283,9.99209558 C16.6406283,9.66764706 16.3754074,9.40441176 16.0483262,9.40441176 L1.90123572,9.40441176 L4.93960793,5.91856616 C5.15389604,5.67132353 5.12722578,5.29889708 4.88052589,5.08400739 C4.63438164,4.87040442 4.26044237,4.89522061 4.04541338,5.13933826 L4.04541338,5.13970588 L0.215638347,9.51783092 C0.0745082047,9.63308824 -0.00494692896,9.80661765 0.000238966512,9.98768381 C0.00579528224,10.1691176 0.0954369848,10.3378677 0.243419843,10.4444853 L4.07356532,14.2459559 C4.3048928,14.4755515 4.6799433,14.4755515 4.91090035,14.2459559 C5.13926442,14.0235294 5.14278343,13.6599265 4.91886439,13.433272 C4.91627143,13.4308824 4.91367846,13.4283088 4.91090035,13.4257353 L2.03273494,10.5799632 Z" id="Path"></path>
                </g>
            </g>
        </g>
    </g>
</svg>