<?xml version="1.0" standalone="no"?>
<!DOCTYPE svg PUBLIC "-//W3C//DTD SVG 20010904//EN"
        "http://www.w3.org/TR/2001/REC-SVG-20010904/DTD/svg10.dtd">
<svg version="1.0" xmlns="http://www.w3.org/2000/svg"
     width="141.000000pt" height="85.000000pt" viewBox="0 0 141.000000 85.000000"
     preserveAspectRatio="xMidYMid meet">

    <g transform="translate(0.000000,85.000000) scale(0.100000,-0.100000)"
       fill="#D5652B" stroke="none">
        <path d="M820 784 c-62 -43 -65 -44 -142 -44 l-78 0 0 -52 0 -53 -71 -49 -72
-49 5 -234 c4 -143 10 -239 16 -245 7 -7 137 -8 419 -2 l408 9 3 180 c2 99 0
208 -3 242 l-6 62 -65 41 -64 42 0 54 0 54 -78 0 c-75 0 -81 2 -133 38 -30 21
-59 41 -65 44 -5 4 -39 -13 -74 -38z m120 -40 c0 -2 -26 -4 -57 -4 l-58 1 29
24 30 24 28 -20 c15 -11 28 -22 28 -25z m200 -161 l0 -128 -86 -58 -85 -59
-38 26 c-46 32 -46 32 -92 0 l-37 -25 -86 57 -86 57 0 129 0 128 255 0 255 0
0 -127z m-540 -53 c0 -27 -3 -50 -6 -50 -3 0 -21 12 -41 27 l-35 27 28 23 c44
35 54 30 54 -27z m624 27 l29 -24 -31 -21 c-44 -32 -52 -28 -52 23 0 52 11 56
54 22z m-576 -155 c67 -45 122 -84 122 -87 0 -4 -229 -181 -257 -198 -10 -6
-13 30 -13 188 0 156 3 194 13 188 7 -4 68 -45 135 -91z m620 -197 l-3 -95
-120 91 c-66 50 -126 97 -133 104 -12 10 9 29 120 104 l133 92 3 -101 c1 -56
1 -143 0 -195z m-211 23 c89 -68 162 -126 163 -130 0 -5 -154 -8 -342 -8 -188
0 -339 2 -337 4 21 21 336 256 343 256 6 0 83 -55 173 -122z"/>
        <path d="M735 590 c-3 -5 0 -12 7 -15 25 -10 318 0 321 10 3 14 -319 19 -328
5z"/>
        <path d="M735 490 c-3 -5 0 -12 7 -15 25 -10 318 0 321 10 3 14 -319 19 -328
5z"/>
        <path d="M25 530 c8 -14 355 -14 355 0 0 6 -67 10 -181 10 -117 0 -178 -3
-174 -10z"/>
        <path d="M95 310 c-3 -5 0 -13 7 -15 26 -10 273 -1 271 10 -4 14 -269 19 -278
5z"/>
        <path d="M35 80 c-3 -6 0 -12 7 -15 26 -10 333 0 331 10 -4 14 -329 19 -338 5z"/>
    </g>
</svg>
