<?xml version="1.0" encoding="UTF-8"?>
<svg width="49px" height="49px" viewBox="0 0 49 49" version="1.1" xmlns="http://www.w3.org/2000/svg" xmlns:xlink="http://www.w3.org/1999/xlink">
    <!-- Generator: sketchtool 55.2 (78181) - https://sketchapp.com -->
    <title>F7B66115-E05C-4FE3-8D69-13315025AB17</title>
    <desc>Created with sketchtool.</desc>
    <g id="desktop" stroke="none" stroke-width="1" fill="none" fill-rule="evenodd">
        <g id="mboy-desk-0.0-inicio" transform="translate(-1178.000000, -13.000000)" fill="#9B9B9B" fill-rule="nonzero">
            <path d="M1227,37.5 C1227,23.9911455 1216.00885,13 1202.5,13 C1188.99115,13 1178,23.9911455 1178,37.5 C1178,44.6352909 1181.06829,51.0667636 1185.95225,55.5480364 L1185.92909,55.5685273 L1186.72378,56.2384909 C1186.77545,56.2821455 1186.83158,56.3177818 1186.88325,56.3605455 C1187.30555,56.7106727 1187.74298,57.0429818 1188.18844,57.3646 C1188.33276,57.4688364 1188.47709,57.5730727 1188.62409,57.6746364 C1189.09984,58.0024909 1189.58805,58.3134182 1190.08696,58.6083091 C1190.19565,58.6724545 1190.30524,58.7348182 1190.41482,58.7971818 C1190.96095,59.1081091 1191.51865,59.4012182 1192.08973,59.6702727 C1192.1316,59.6898727 1192.17436,59.7076909 1192.21624,59.7272909 C1194.07735,60.5923636 1196.06407,61.2275818 1198.14167,61.6026545 C1198.19602,61.6124545 1198.25036,61.6222545 1198.3056,61.6320545 C1198.95062,61.7434182 1199.60276,61.8325091 1200.26293,61.8922 C1200.34311,61.8993273 1200.42329,61.9037818 1200.50436,61.9109091 C1201.16185,61.9652545 1201.82647,62 1202.5,62 C1203.16729,62 1203.82567,61.9652545 1204.4796,61.9126909 C1204.56245,61.9055636 1204.64531,61.9011091 1204.72816,61.8939818 C1205.38298,61.8342909 1206.02978,61.7478727 1206.66856,61.6382909 C1206.7238,61.6284909 1206.77993,61.6186909 1206.83516,61.608 C1208.88158,61.2409455 1210.8398,60.6199818 1212.67685,59.7771818 C1212.74456,59.746 1212.81316,59.7166 1212.88087,59.6845273 C1213.43056,59.4261636 1213.96778,59.1473091 1214.49431,58.8506364 C1214.62527,58.7766909 1214.75535,58.7018545 1214.88542,58.6252364 C1215.36473,58.3428182 1215.83602,58.0479273 1216.29395,57.7343273 C1216.45876,57.6220727 1216.62002,57.5035818 1216.78305,57.3859818 C1217.17416,57.1044545 1217.55815,56.8140182 1217.93144,56.5102182 C1218.01429,56.4434 1218.10338,56.3854909 1218.18445,56.3168909 L1218.99964,55.6362364 L1218.97558,55.6157455 C1223.90231,51.1326909 1227,44.6718182 1227,37.5 Z M1179.78182,37.5 C1179.78182,24.9729273 1189.97293,14.7818182 1202.5,14.7818182 C1215.02707,14.7818182 1225.21818,24.9729273 1225.21818,37.5 C1225.21818,44.2504182 1222.25591,50.3192909 1217.56616,54.4834 C1217.30424,54.3025455 1217.04053,54.1404 1216.77058,54.0049818 L1209.22725,50.2337636 C1208.55016,49.8952182 1208.12965,49.2145636 1208.12965,48.4581818 L1208.12965,45.8237636 C1208.30427,45.6081636 1208.48869,45.3640545 1208.67935,45.0958909 C1209.65578,43.7167636 1210.43889,42.1826182 1211.00996,40.5317636 C1212.13875,39.9954364 1212.86751,38.8711091 1212.86751,37.6015636 L1212.86751,34.4432909 C1212.86751,33.6708727 1212.5842,32.9216182 1212.07727,32.3327273 L1212.07727,28.1748545 C1212.1236,27.7115818 1212.28753,25.103 1210.39969,22.9505636 C1208.75775,21.0760909 1206.10016,20.1272727 1202.5,20.1272727 C1198.89984,20.1272727 1196.24225,21.0760909 1194.60031,22.9496727 C1192.71247,25.1021091 1192.8764,27.7124727 1192.92273,28.1739636 L1192.92273,32.3318364 C1192.41669,32.9207273 1192.13249,33.6699818 1192.13249,34.4424 L1192.13249,37.6006727 C1192.13249,38.5815636 1192.5726,39.4965273 1193.32631,40.1139273 C1194.04795,42.9407818 1195.53309,45.0807455 1196.08189,45.8059455 L1196.08189,48.3842364 C1196.08189,49.1112182 1195.68544,49.7794 1195.04665,50.1286364 L1188.00224,53.9711273 C1187.77773,54.0931818 1187.555,54.2357273 1187.33227,54.3952 C1182.70044,50.2328727 1179.78182,44.2014182 1179.78182,37.5 Z" id="Shape"></path>
        </g>
    </g>
</svg>