<?xml version="1.0" encoding="UTF-8"?>
<svg width="114px" height="114px" viewBox="0 0 114 114" version="1.1" xmlns="http://www.w3.org/2000/svg" xmlns:xlink="http://www.w3.org/1999/xlink">
    <!-- Generator: sketchtool 55.2 (78181) - https://sketchapp.com -->
    <title>24B86EF2-BAE7-4EF0-9E95-6DF4879704C1</title>
    <desc>Created with sketchtool.</desc>
    <g id="desktop" stroke="none" stroke-width="1" fill="none" fill-rule="evenodd">
        <g id="mboy-desk-0.7.3-erro" transform="translate(-580.000000, -134.000000)">
            <g id="modal" transform="translate(440.000000, 58.000000)">
                <g id="Group-5" transform="translate(140.000000, 76.000000)">
                    <circle id="Oval" fill="#FCD1D9" cx="57" cy="57" r="57"></circle>
                    <path d="M65.729725,39.4529669 C65.2033501,39.858787 64.7363514,40.3378567 64.3439914,40.8749134 C63.0140099,40.5828144 61.3874453,41.0871013 60.1543601,42.3220367 C59.5950426,42.8821497 59.1685942,43.8404192 58.8955907,45.1712472 L58.8955907,49.2423829 C58.8955907,49.7394704 58.4932558,50.1424521 57.996904,50.1424521 C57.5005801,50.1424521 57.0982174,49.7394983 57.0982174,49.2423829 L57.0982174,45.1711667 C56.8253031,43.8400461 56.3987454,42.881433 55.8392349,42.3210617 C54.0935705,40.5727781 51.559275,40.2888142 50.1943544,41.6558347 C49.52763,42.3234554 49.2320093,43.2848802 49.3656444,44.3708775 C49.3995224,44.6460082 49.3049012,44.9214793 49.1092179,45.1174637 C48.9135515,45.3135212 48.6388651,45.4081807 48.3637095,45.3743519 C47.2796821,45.2404506 46.3195827,45.5365676 45.6528904,46.2042855 C44.2879519,47.571259 44.5714222,50.109528 46.3170414,51.8578992 C46.8764937,52.4182122 47.8333817,52.8453823 49.1620098,53.1186137 L53.9858211,53.1186137 C54.482145,53.1186137 54.8845077,53.5215675 54.8845077,54.0186829 C54.8845077,54.5157704 54.4821728,54.9187521 53.9858211,54.9187521 L49.1616644,54.9187521 C47.8326751,55.1920829 46.8755948,55.6192923 46.3160764,56.1796715 C44.5704527,57.9280472 44.2869856,60.4662468 45.6519404,61.8332365 C46.3184737,62.5009246 47.2782251,62.7969264 48.3628436,62.6631398 C48.6373801,62.6293666 48.9125524,62.7241109 49.1081474,62.9200069 C49.3038643,63.1160249 49.3984855,63.3914961 49.3646081,63.6666225 C49.2309245,64.7524814 49.5265696,65.7138959 50.1932696,66.3816215 C51.5580573,67.748639 54.0925571,67.4646999 55.8381346,65.7164368 C56.3974991,65.1562768 56.8239889,64.1979511 57.096904,62.8672314 L57.096904,60.1476829 C57.096904,59.6505954 57.4992389,59.2476137 57.9955907,59.2476137 C58.4919146,59.2476137 58.8942773,59.6505675 58.8942773,60.1476829 L58.8942773,62.8673068 C59.1671916,64.1984274 59.5937493,65.1570405 60.1532598,65.7174118 C61.8989086,67.4656798 64.4332892,67.7495897 65.7981261,66.382653 C66.4648424,65.7149111 66.7604728,64.7534549 66.626773,63.6675295 C66.5929899,63.3924399 66.6875961,63.1170123 66.8832077,62.9210098 C67.0788946,62.7249318 67.3537551,62.6302047 67.6287361,62.6641241 C68.712744,62.7981298 69.6727773,62.5019716 70.3395317,61.8341915 C70.9803475,61.1923898 71.2802879,60.2703854 71.1808488,59.231118 C71.075464,58.1318532 70.541502,57.0477502 69.6755224,56.1805051 C69.1161093,55.6202313 68.1593374,55.193107 66.8306862,54.9197906 L62.765798,54.9197906 C62.2694948,54.9197906 61.8671114,54.5167882 61.8671114,54.0197214 C61.8671114,53.5226338 62.2694463,53.1196521 62.765798,53.1196521 L66.8308987,53.1196521 C68.0581364,52.8672616 68.9682383,52.4836607 69.5409606,51.9851891 C69.6927071,51.9950122 69.8457711,52 70,52 C70.7205104,52 71.4155958,51.8911425 72.0697068,51.688977 C71.7637955,52.205187 71.387154,52.691027 70.9471105,53.1317205 C70.6124037,53.4669422 70.2034836,53.7632924 69.7228719,54.0199696 C70.2032182,54.276595 70.6117952,54.5727223 70.9462788,54.90772 C72.1051619,56.0683157 72.8243119,57.5421881 72.9697548,59.0591681 C73.1211695,60.6371097 72.6390882,62.0769366 71.6104854,63.1071942 C70.7896085,63.929197 69.6726717,64.4115549 68.4445338,64.4848184 C68.3713276,65.7149325 67.889753,66.8335138 67.0690172,67.6556493 C66.1651634,68.5608231 64.9324165,69.0384367 63.5834709,69.0384367 C62.3608996,69.0384367 61.1105193,68.6459023 60.0117508,67.9161815 C61.6555793,71.035173 64.9062879,73.061506 68.5206137,73.061506 C69.016917,73.061506 69.4193004,73.4645084 69.4193004,73.9615752 C69.4193004,74.4586627 69.0169655,74.8616444 68.5206137,74.8616444 C63.3620783,74.8616444 58.88811,71.3886196 57.5261306,66.5054477 C57.3941498,66.6815906 57.2551085,66.8429871 57.1090268,66.9892935 C55.7960794,68.3043303 54.0815367,69.0373245 52.4078715,69.0373983 C51.0587611,69.0375466 49.8262548,68.5600232 48.9222153,67.6545928 C48.1015288,66.8325067 47.6199289,65.7138524 47.5467771,64.4837915 C46.3185046,64.4105994 45.2017334,63.9283186 44.3808245,63.1062153 C42.3007133,61.0229762 42.6096557,57.3459519 45.0450386,54.9068223 C45.3797485,54.5715974 45.7886731,54.2752448 46.2692906,54.018566 C45.788919,53.7619166 45.3803168,53.4657837 45.0458659,53.1308183 C42.6105391,50.6916734 42.3016275,47.0147954 44.3817267,44.9314238 C45.2025399,44.1094163 46.3194755,43.6270573 47.5476739,43.5537936 C47.6208203,42.3235549 48.1024074,41.204882 48.9231927,40.382971 C51.0032515,38.2996398 54.6745623,38.6090316 57.1100033,41.0482195 C57.4446698,41.3834585 57.7405262,41.793 57.9968537,42.2744073 C58.2530644,41.7933276 58.5487679,41.3840487 58.8831931,41.049109 C60.8552937,39.0739166 63.6378944,38.4953385 65.729725,39.4529669 Z" id="Combined-Shape" fill="#D80027" fill-rule="nonzero"></path>
                    <path d="M57.9955215,55.8434214 C57.6136782,55.8434214 57.3042082,56.1534367 57.3042082,56.5357983 L57.3042082,56.5415444 C57.3042082,56.9239752 57.6137474,57.2310137 57.9955215,57.2310137 C58.3773649,57.2310137 58.6868349,56.9181598 58.6868349,56.5357983 C58.6868349,56.1534367 58.3773649,55.8434214 57.9955215,55.8434214 Z" id="Path" stroke="#D80027" stroke-width="0.5" fill="#D80027" fill-rule="nonzero"></path>
                    <path d="M72.0612662,42.0001251 L76.7801172,37.2810774 C77.0732943,36.9881382 77.0732943,36.5128312 76.7801172,36.219892 C76.48694,35.9267027 76.0121532,35.9267027 75.718976,36.219892 L71.0001251,40.9389397 L66.281024,36.219892 C65.9878468,35.9267027 65.51306,35.9267027 65.2198828,36.219892 C64.9267057,36.5128312 64.9267057,36.9881382 65.2198828,37.2810774 L69.938984,42.0001251 L65.2198828,46.7191728 C64.9267057,47.012112 64.9267057,47.487419 65.2198828,47.7803581 C65.3664714,47.9267027 65.5585875,48 65.7504534,48 C65.9423193,48 66.1344354,47.9267027 66.281024,47.780108 L71.0001251,43.0610603 L75.718976,47.780108 C75.8655646,47.9267027 76.0576807,48 76.2495466,48 C76.4414125,48 76.6335286,47.9267027 76.7801172,47.780108 C77.0732943,47.4871688 77.0732943,47.0118618 76.7801172,46.7189226 L72.0612662,42.0001251 Z" id="Path-Copy" fill="#D80027"></path>
                </g>
            </g>
        </g>
    </g>
</svg>