<?xml version="1.0" encoding="UTF-8"?>
<svg width="22px" height="27px" viewBox="0 0 22 27" version="1.1" xmlns="http://www.w3.org/2000/svg" xmlns:xlink="http://www.w3.org/1999/xlink">
    <!-- Generator: sketchtool 55.2 (78181) - https://sketchapp.com -->
    <title>C53B7FB9-02FB-4D04-A873-F5E673E295DC</title>
    <desc>Created with sketchtool.</desc>
    <g id="desktop" stroke="none" stroke-width="1" fill="none" fill-rule="evenodd">
        <g id="mboy-desk-0.0-inicio" transform="translate(-22.000000, -324.000000)" fill="#D5652B" fill-rule="nonzero">
            <g id="ic/sorteios" transform="translate(22.000000, 324.000000)">
                <g id="Group-5">
                    <path d="M21.9778208,15.0443758 C22.0888583,16.227832 21.7353319,17.3077021 20.9810232,18.0803954 C20.3790468,18.6968974 19.5599598,19.0586658 18.6593253,19.1136135 C18.6056407,20.036199 18.252486,20.875135 17.6506131,21.4917366 C16.987787,22.1706169 16.0837726,22.5288272 15.0945457,22.5288272 C14.1979934,22.5288272 13.2810478,22.2344264 12.4752843,21.6871357 C13.6807585,24.0263793 16.0646116,25.546129 18.7151173,25.546129 C19.079073,25.546129 19.3741541,25.8483808 19.3741541,26.2211809 C19.3741541,26.5939966 19.0791085,26.8962328 18.7151173,26.8962328 C14.9321912,26.8962328 11.651281,24.2914643 10.652496,20.6290854 C10.5557101,20.7611926 10.4537465,20.88224 10.34662,20.9919698 C9.38379182,21.9782473 8.12646044,22.527993 6.89910597,22.5280483 C5.90975832,22.5281596 5.00592032,22.170017 4.34295801,21.4909442 C3.7411212,20.8743796 3.38794799,20.0353889 3.33430329,19.1128433 C2.43357011,19.0579492 1.61460453,18.6962386 1.01260468,18.0796612 C-0.512810231,16.5172319 -0.28625249,13.7594637 1.499695,11.9301165 C1.74514895,11.6786978 2.04502698,11.4564334 2.39747984,11.2639243 C2.04520736,11.0714372 1.7455657,10.8493376 1.50030172,10.5981135 C-0.285604632,8.76875491 -0.51213982,6.01109645 1.01326629,4.44856779 C1.615196,3.83206219 2.43428209,3.47029293 3.33496097,3.41534513 C3.38860166,2.49266614 3.74176552,1.65366148 4.34367478,1.0372282 C5.86905126,-0.525270112 8.56134591,-0.293226266 10.347336,1.5361646 C10.5927581,1.78759381 10.8097195,2.09474993 10.9976931,2.45580539 C11.1855809,2.09499569 11.4024302,1.78803648 11.6476753,1.53683174 C13.4335859,-0.292531295 16.1258822,-0.524558612 17.6513315,1.03790588 C18.2532093,1.65446105 18.6063955,2.49344832 18.6600414,3.41601105 C19.5608348,3.47090397 20.3797845,3.83261064 20.9817456,4.44925125 C21.7359583,5.22184607 22.0894678,6.30169312 21.978531,7.48520071 C21.8718184,8.62295708 21.3444344,9.72830473 20.4945483,10.5987902 C20.2490966,10.8502065 19.9492219,11.0724691 19.5967733,11.264977 C19.9490272,11.457446 20.2486504,11.6795415 20.4939383,11.9307898 C21.343786,12.8012366 21.8711626,13.9066408 21.9778208,15.0443758 Z M11.6558032,17.90048 C11.8559404,18.8988204 12.1687493,19.6177802 12.579057,20.0380586 C13.8591994,21.3492596 15.7177452,21.562192 16.7186256,20.5369896 C17.2075508,20.0361831 17.4243464,19.315091 17.3262999,18.500647 C17.3015257,18.2943297 17.3709036,18.0877591 17.514352,17.9407572 C17.6578557,17.7936987 17.8594202,17.7226533 18.0610728,17.7480929 C18.8560119,17.8485972 19.5600364,17.6264786 20.0489896,17.1256435 C20.5189211,16.6442922 20.7388774,15.9527889 20.6659554,15.1733384 C20.5886733,14.3488898 20.1971011,13.5358125 19.5620495,12.8853787 C19.1518132,12.4651734 18.4501805,12.1448301 17.4758363,11.9398429 L14.4949183,11.9398429 C14.1309626,11.9398429 13.8358815,11.6375911 13.8358815,11.2647909 C13.8358815,10.8919753 14.1309271,10.589739 14.4949183,10.589739 L17.4759921,10.589739 C18.4506097,10.3847463 19.1524833,10.0643451 19.5627592,9.64409933 C20.1978098,8.99361654 20.5893831,8.18053682 20.6666653,7.35613748 C20.7397256,6.57684398 20.5197697,5.88527613 20.0498513,5.40393842 C19.5608572,4.90306136 18.8567919,4.68093377 18.0619487,4.78148721 C17.8606331,4.80695913 17.6586806,4.73584528 17.5152385,4.58884997 C17.3717127,4.44183644 17.3023238,4.23523305 17.3271672,4.02888941 C17.4252016,3.21444737 17.2083984,2.49338425 16.7194899,1.99259493 C15.7185267,0.967356375 13.8600342,1.18029799 12.5798639,2.49152754 C12.1696977,2.91161227 11.8569689,3.63031444 11.6567663,4.62843539 L11.6567663,7.68178715 C11.6567663,8.05460279 11.3617207,8.35683906 10.9977295,8.35683906 C10.6337586,8.35683906 10.3386926,8.05462367 10.3386926,7.68178715 L10.3386926,4.62837501 C10.1385554,3.63003458 9.82574651,2.9110748 9.4154388,2.49079632 C8.13528492,1.1795836 6.27680156,0.966610726 5.27585982,1.99187606 C4.78692865,2.49259161 4.57014011,3.21366017 4.66813918,4.02815816 C4.69298302,4.23450613 4.62359416,4.44110952 4.48009309,4.58809776 C4.33660436,4.73514088 4.13516771,4.80613556 3.93338692,4.78076391 C3.13843349,4.68033793 2.43436061,4.90242571 1.94545299,5.40321412 C0.944498067,6.42844422 1.15237629,8.33214598 2.43249701,9.64342433 C2.84276201,10.0636591 3.54447992,10.3840367 4.51880717,10.5889602 L8.05626869,10.5889602 C8.42023959,10.5889602 8.71530555,10.8911756 8.71530555,11.2640121 C8.71530555,11.6368277 8.42025997,11.939064 8.05626869,11.939064 L4.51855385,11.939064 C3.54396171,12.1440621 2.84210287,12.4644692 2.43178938,12.8847535 C1.15166534,14.1960353 0.943789464,16.0996849 1.94475628,17.1249272 C2.43354738,17.6256933 3.13736508,17.8476947 3.93275192,17.7473547 C4.13407874,17.7220248 4.33587169,17.793083 4.47930804,17.940005 C4.62283379,18.0870185 4.69222265,18.2936219 4.6673792,18.4999667 C4.56934462,19.3143609 4.78615097,20.0354217 5.27506429,20.536216 C6.27590864,21.561479 8.13454174,21.3485247 9.41463194,20.0373274 C9.82483254,19.6172074 10.1375917,18.8984631 10.3377295,17.9004234 L10.3377295,15.860762 C10.3377295,15.4879464 10.6327751,15.1857101 10.9967663,15.1857101 C11.3607372,15.1857101 11.6558032,15.4879255 11.6558032,15.860762 L11.6558032,17.90048 Z" id="Shape"></path>
                    <path d="M10.9967155,12.6325661 C10.7166971,12.6325661 10.4897524,12.8650776 10.4897524,13.1518488 L10.4897524,13.1561584 C10.4897524,13.4429815 10.7167478,13.6732603 10.9967155,13.6732603 C11.2767339,13.6732603 11.5036786,13.4386199 11.5036786,13.1518488 C11.5036786,12.8650776 11.2767339,12.6325661 10.9967155,12.6325661 Z" id="Path" stroke="#D5652B" stroke-width="0.5"></path>
                </g>
            </g>
        </g>
    </g>
</svg>