<?xml version="1.0" encoding="UTF-8"?>
<svg width="100%" height="100%" viewBox="0 0 24 27" version="1.1" xmlns="http://www.w3.org/2000/svg"
     xmlns:xlink="http://www.w3.org/1999/xlink" fit="" preserveAspectRatio="xMidYMid meet" focusable="false"
     style="margin-top: 12px">
    <title>8E696982-41D8-4742-B6E1-5709C7C24EA6</title>
    <desc>Created with sketchtool.</desc>
    <g id="desktop" stroke="none" stroke-width="1" fill="none" fill-rule="evenodd">
        <g id="mboy-desk-0.0-inicio" transform="translate(-21.000000, -226.000000)" fill="#D5652B" fill-rule="nonzero">
            <g id="ic/valores_menu" transform="translate(21.000000, 226.000000)">
                <g id="Group-5">
                    <path d="M12,0 C5.38323134,0 0,5.38323134 0,12 C0,18.6167687 5.38323134,24 12,24 C18.6167687,24 24,18.6167687 24,12 C24,5.38323134 18.6168815,0 12,0 Z M11.9999996,22.4208248 C6.25398331,22.4208248 1.57928882,17.7460171 1.57928882,12.0000004 C1.57928882,6.25398368 6.25398331,1.57928882 11.9999996,1.57928882 C17.7460158,1.57928882 22.4207103,6.25398368 22.4207103,12.0000004 C22.4207103,17.7460171 17.7460158,22.4208248 11.9999996,22.4208248 Z"
                          id="Shape"></path>
                    <path d="M13.2146102,11.3293539 L13.2146102,7.0857368 C13.5623917,7.24280103 13.8658335,7.53098346 14.0768204,7.92070776 C14.2635741,8.26548029 14.6447202,8.36093605 14.9281433,8.133935 C15.2116542,7.90693394 15.2901487,7.44342896 15.103395,7.09865643 C14.6618415,6.28333185 13.981468,5.72981658 13.2146102,5.53474088 L13.2146102,4.34741646 C13.2146102,3.93462902 12.9394404,3.6 12.6,3.6 C12.2605596,3.6 11.9853898,3.93462902 11.9853898,4.34741646 L11.9853898,5.53249863 C10.6250819,5.87737794 9.6,7.34647837 9.6,9.10151898 C9.6,10.8565596 10.6251697,12.3258736 11.9853898,12.6707529 L11.9853898,16.91437 C11.6376083,16.7573057 11.3341665,16.4691233 11.1231796,16.079399 C10.9364259,15.7346265 10.5552798,15.6390639 10.2718567,15.8661718 C9.98834582,16.0931728 9.90985132,16.5566778 10.096605,16.9014503 C10.5381585,17.7167749 11.218532,18.2702902 11.9853898,18.4653659 L11.9853898,19.6525835 C11.9853898,20.065371 12.2605596,20.4 12.6,20.4 C12.9394404,20.4 13.2146102,20.065371 13.2146102,19.6525835 L13.2146102,18.4676081 C14.5749181,18.1227288 15.6,16.6536284 15.6,14.8985878 C15.6,13.1435472 14.5749181,11.6742332 13.2146102,11.3293539 Z M10.8292203,9.10151896 C10.8292203,8.17760544 11.3116015,7.39025557 11.9853898,7.08627062 L11.9853898,11.1167673 C11.3116015,10.8127824 10.8292203,10.0254325 10.8292203,9.10151896 L10.8292203,9.10151896 Z M13.2146101,16.9137294 L13.2146101,12.8832327 C13.8883984,13.1872176 14.3707796,13.9745675 14.3707796,14.898481 C14.3707796,15.8223946 13.8884862,16.6097444 13.2146101,16.9137294 Z"
                          id="Shape"></path>
                </g>
            </g>
        </g>
    </g>
</svg>
