<?xml version="1.0" encoding="UTF-8"?>
<svg width="114px" height="114px" viewBox="0 0 114 114" version="1.1" xmlns="http://www.w3.org/2000/svg" xmlns:xlink="http://www.w3.org/1999/xlink">
    <!-- Generator: sketchtool 55.2 (78181) - https://sketchapp.com -->
    <title>AC02D9CF-784C-422E-9F82-99E52C4586F1</title>
    <desc>Created with sketchtool.</desc>
    <g id="desktop" stroke="none" stroke-width="1" fill="none" fill-rule="evenodd">
        <g id="mboy-desk-0.1.6-admin-erro" transform="translate(-579.000000, -134.000000)">
            <g id="viagens" transform="translate(579.000000, 134.000000)">
                <circle id="Oval" fill="#FCD1D9" cx="57" cy="57" r="57"></circle>
                <path d="M43.5793333,60 L43,61.3517333 C43.3946,61.5212667 43.7694,61.7393333 44.1137333,62 L45,60.8266667 C44.5609333,60.4944667 44.083,60.2163333 43.5793333,60 Z" id="Path" fill="#D80027" fill-rule="nonzero"></path>
                <path d="M42,59.2436667 C41.3488,59.082 40.6759333,59 40,59 L40,60.8092667 C40.5303333,60.8092667 41.0578667,60.8734667 41.5676667,61 L42,59.2436667 Z" id="Path" fill="#D80027" fill-rule="nonzero"></path>
                <path d="M44,63.5264375 C45.28088,65.01 45.9932,66.9538125 46.00584,69 L48,68.9848625 C47.98376,66.3728125 47.07512,63.892275 45.44136,62 L44,63.5264375 Z" id="Path" fill="#D80027" fill-rule="nonzero"></path>
                <path d="M39,41 L37.14392,39.14392 L37.14392,34.85608 L32.85608,34.85608 L31,33 L39,33 L39,41 Z" id="Combined-Shape" fill="#D80027"></path>
                <polygon id="Path" fill="#D80027" fill-rule="nonzero" points="38 48 42 48 42 50 38 50"></polygon>
                <path d="M81.5077341,62.5267 C81.4421232,62.5267 81.3770024,62.5289091 81.3118817,62.5312 L81.2823037,62.5321818 L81.2349951,62.5336545 L81.2349951,55.5183182 L79.4384146,47.7144182 C81.1710183,47.3997455 82.4892024,45.8810364 82.4892024,44.0591909 L82.4892024,40.7161 C82.4892024,38.6670455 80.822128,37 78.7729902,37 L70.3363829,37 L70.3363829,37.3255545 C69.895,37.1170818 69.4024683,37 68.8828098,37 C66.9989659,37 65.4662183,38.5325364 65.4662183,40.4164818 C65.4662183,42.3003455 66.9989659,43.8329636 68.8828098,43.8329636 C69.4024683,43.8329636 69.895,43.7158 70.3363829,43.5073273 L70.3363829,63.2192909 L66.2913805,67.2641364 L57.033778,67.2656909 C56.0916927,67.2656909 55.3251146,66.4993 55.3251146,65.5573273 L55.3251146,56.4938364 C55.3251146,55.6370364 55.0714951,54.8388182 54.6368939,54.1683182 L55.3842707,54.1683182 C57.3727,54.1683182 58.9905049,52.5506909 58.9905049,50.5621818 C58.9905049,48.4359727 57.2606793,46.7060909 55.134328,46.7060909 L43.0736744,46.7060909 L43.0736744,49.9232636 C43.0736744,50.7629636 43.3197768,51.5457182 43.742122,52.2053364 L39.6625573,52.2053364 C31.0262328,52.2055 24,59.2313909 24,67.8673818 L24,73 L69.2481232,73 L72.2291329,70.0191182 C72.0903122,70.6640909 72.0153049,71.3326273 72.0153049,72.0185909 L72.0153049,73 L91,73 L91,72.0185909 C91,66.7846818 86.7418232,62.5267 81.5077341,62.5267 Z M68.8826463,41.8699818 C68.0810159,41.8699818 67.4289915,41.2179727 67.4289915,40.4163182 C67.4289915,39.6147455 68.0810159,38.9626545 68.8826463,38.9626545 C69.6841951,38.9626545 70.3362195,39.6147455 70.3362195,40.4163182 C70.3362195,41.2179727 69.6841951,41.8699818 68.8826463,41.8699818 Z M78.7729085,38.9626545 L78.0827268,38.9626545 L78.0827268,45.8123909 L78.7729085,45.8123909 C79.7395878,45.8123909 80.5261841,45.0257909 80.5261841,44.0590273 L80.5261841,40.7160182 C80.5261841,39.7492545 79.7396695,38.9626545 78.7729085,38.9626545 Z M76.4746451,47.7751273 L77.4379744,47.7751273 L79.2719768,55.7411909 L79.2719768,62.7923636 C79.2650317,62.794 79.2581683,62.7957182 79.2512232,62.7975182 L79.2257305,62.8043909 L79.2254854,62.8044727 C79.2126573,62.8079091 79.199911,62.8114273 79.1870829,62.8146182 C79.1581585,62.8219818 79.1293976,62.8296727 79.1006366,62.8372818 L79.0696695,62.8454636 C78.9556878,62.8755727 78.8425232,62.9078909 78.7299305,62.9421727 C78.7068073,62.9492091 78.6835207,62.9561636 78.6603159,62.9635273 C77.89145,63.2045636 77.1575549,63.5410818 76.4746451,63.9694 L76.4746451,47.7751273 Z M76.119872,38.9626545 L72.2993195,38.9626545 L72.2993195,45.8123909 L76.119872,45.8123909 L76.119872,38.9626545 Z M45.0365293,48.6689909 L55.134328,48.6689909 C56.1783024,48.6689909 57.0275683,49.5184273 57.0275683,50.5623455 C57.0275683,51.4684 56.2903232,52.2055818 55.3842707,52.2055818 L47.3186146,52.2055818 C46.0602402,52.2055 45.0365293,51.1817091 45.0365293,49.9234273 L45.0365293,48.6689909 Z M50.0506622,71.0371818 L50.0506622,71.0371818 L50.0506622,68.8037909 C50.0506622,63.0760273 45.3905671,58.4162364 39.6627207,58.4162364 C33.9345476,58.4162364 29.2745505,63.0760273 29.2745505,68.8037909 L29.2745505,71.0371818 L50.0506622,71.0371818 Z M68.4351354,71.0371818 L52.0134354,71.0371818 L52.0134354,68.8037909 C52.0134354,61.9937364 46.4728622,56.4534182 39.6625573,56.4534182 C32.8522524,56.4534182 27.311524,61.9937364 27.311524,68.8037909 L27.311524,71.0371818 L25.9628876,71.0371818 L25.9628876,67.8673818 C25.9628876,60.3136 32.1085688,54.1683182 39.6625573,54.1683182 L51.0366244,54.1683182 C52.3188573,54.1683182 53.3620963,55.2115818 53.3620963,56.4938364 L53.3620963,65.557 C53.3620963,67.5813455 55.0090707,69.2282636 57.0336146,69.2282636 L67.1045317,69.2265455 L72.2991561,64.0320727 L72.2991561,47.7751273 L74.5117085,47.7751273 L74.5117085,64.9607091 L68.4351354,71.0371818 Z M79.4192134,64.7846364 C76.5847866,65.6041273 74.4326976,68.0473 74.0418915,71.0371818 L88.9734951,71.0371818 C88.4911768,67.3475091 85.3269793,64.4895182 81.5077341,64.4895182 C81.0345671,64.4895182 80.5715317,64.5336182 80.1223049,64.6174818 C80.1113561,64.6195273 80.1004073,64.6218182 80.0895402,64.6241091 C80.0811244,64.6258273 80.0727085,64.6276273 80.064211,64.6292636 C79.974578,64.6467727 79.8853537,64.6654273 79.7968646,64.6860455 C79.7730878,64.6915273 79.7494744,64.6977455 79.7256976,64.7034727 C79.638761,64.7246636 79.5521512,64.7469182 79.4664402,64.7711364 C79.450589,64.7755545 79.4349012,64.7800545 79.4192134,64.7846364 Z" id="Shape" fill="#D80027"></path>
                <path d="M77,68.1022667 L78.1193333,69 C78.3646667,68.6936 78.661,68.4391333 79,68.2434667 L78.2835333,67 C77.7893333,67.2852 77.3575333,67.6560667 77,68.1022667 Z" id="Path" fill="#D80027" fill-rule="nonzero"></path>
                <path d="M80,66.2148554 L80.4570667,68 C80.8984,67.8659325 81.3682,67.8231989 81.8266,67.8741992 L82,66.0305209 C81.3311333,65.9558537 80.6457333,66.0185208 80,66.2148554 Z" id="Path" fill="#D80027" fill-rule="nonzero"></path>
                <path d="M83.6024,66 L83,67.737 C83.642975,67.989825 84.211025,68.426475 84.64295,69 L86,67.8417 C85.3706,67.006125 84.541475,66.369225 83.6024,66 Z" id="Path" fill="#D80027" fill-rule="nonzero"></path>
                <polygon id="Path" fill="#D80027" fill-rule="nonzero" points="36 63 44 63 44 65 36 65"></polygon>
                <polygon id="Path" fill="#D80027" fill-rule="nonzero" points="36 66 44 66 44 68 36 68"></polygon>
                <polygon id="Path" fill="#D80027" fill-rule="nonzero" points="31 52.0405385 26.1058975 52.0405385 26.1058975 42.9594615 24 44 24 54 31 54"></polygon>
                <polygon id="Path" fill="#D80027" fill-rule="nonzero" points="42.8904167 45 45 45 45 33 40 33 40 34.97304 42.8904167 34.97304"></polygon>
                <path d="M45,75.03048 L43.2164769,74 C42.4222769,75.25688 41.0330615,76.0072 39.5,76.0072 C37.9669385,76.0072 36.5775538,75.25688 35.7833538,74 L34,75.03048 C35.1747154,76.88992 37.2309538,78 39.5001692,78 C41.7693,78 43.8252846,76.88992 45,75.03048 Z" id="Path" fill="#D80027" fill-rule="nonzero"></path>
                <path d="M40.0000818,79.0854222 C36.7334909,79.0854222 33.8645364,77.0417333 32.8609545,74 L31,74.5883889 C32.2651055,78.4233778 35.8820909,81 40.0000818,81 C44.1182364,81 47.7350091,78.4233778 49,74.5883889 L47.1390455,74.0001556 C46.1356273,77.0417333 43.2666727,79.0854222 40.0000818,79.0854222 Z" id="Path" fill="#D80027" fill-rule="nonzero"></path>
                <path d="M87,75.03064 L85.2165615,74.00016 C84.4223615,75.25696 83.0329769,76.00728 81.5,76.00728 C79.9671923,76.00728 78.5776385,75.25696 77.7834385,74 L76,75.03064 C77.1748846,76.88992 79.2310385,78 81.5,78 C83.7691308,78.00016 85.8252846,76.89008 87,75.03064 Z" id="Path" fill="#D80027" fill-rule="nonzero"></path>
                <path d="M81,79.0854222 C77.7333273,79.0854222 74.8643727,77.0417333 73.8609545,74 L72,74.5883111 C73.2649909,78.4233778 76.8818455,81 81,81 C85.1181545,81 88.7350091,78.4233778 90,74.5883889 L88.1390455,74.0001556 C87.1356273,77.0417333 84.2666727,79.0854222 81,79.0854222 Z" id="Path" fill="#D80027" fill-rule="nonzero"></path>
                <path d="M27.4093333,34.995 L33.6973333,28.707 C34.088,28.3166667 34.088,27.6833333 33.6973333,27.293 C33.3066667,26.9023333 32.674,26.9023333 32.2833333,27.293 L25.9953333,33.581 L19.707,27.293 C19.3163333,26.9023333 18.6836667,26.9023333 18.293,27.293 C17.9023333,27.6833333 17.9023333,28.3166667 18.293,28.707 L24.5813333,34.995 L18.293,41.283 C17.9023333,41.6733333 17.9023333,42.3066667 18.293,42.697 C18.4883333,42.892 18.7443333,42.9896667 19,42.9896667 C19.2556667,42.9896667 19.5116667,42.892 19.707,42.6966667 L25.9953333,36.4086667 L32.2833333,42.6966667 C32.4786667,42.892 32.7346667,42.9896667 32.9903333,42.9896667 C33.246,42.9896667 33.502,42.892 33.6973333,42.6966667 C34.088,42.3063333 34.088,41.673 33.6973333,41.2826667 L27.4093333,34.995 Z" id="Path-Copy" fill="#D80027"></path>
            </g>
        </g>
    </g>
</svg>